<?xml version="1.0" standalone="no"?>
<!DOCTYPE svg PUBLIC "-//W3C//DTD SVG 20010904//EN"
 "http://www.w3.org/TR/2001/REC-SVG-20010904/DTD/svg10.dtd">
<svg version="1.0" xmlns="http://www.w3.org/2000/svg"
 width="634.000000pt" height="227.000000pt" viewBox="0 0 634.000000 227.000000"
 preserveAspectRatio="xMidYMid meet">

<g transform="translate(0.000000,227.000000) scale(0.100000,-0.100000)"
fill="#000000" stroke="none">
<path d="M1830 2111 l-185 -79 -17 -83 c-22 -106 -22 -113 -2 -105 9 3 33 9
54 12 l38 6 6 -88 c3 -49 9 -138 12 -199 l6 -110 -30 42 c-85 115 -301 169
-457 114 -114 -41 -258 -159 -305 -251 -67 -130 -67 -307 -1 -456 70 -157 262
-232 449 -175 129 39 269 158 331 282 l29 58 6 -77 c3 -42 8 -131 11 -197 3
-66 8 -154 11 -196 l6 -76 181 5 c100 2 183 5 184 6 1 1 -2 82 -8 180 -5 98
-8 180 -6 183 3 2 179 -91 392 -206 213 -116 391 -211 395 -211 4 0 6 19 4 43
-13 162 -13 175 10 181 11 3 40 6 62 6 66 0 228 46 304 85 67 36 150 111 150
137 0 13 -166 220 -181 226 -4 2 -13 -7 -19 -19 -24 -43 -95 -111 -142 -135
-46 -23 -103 -33 -96 -16 2 5 91 113 198 241 107 127 195 237 195 244 0 21
-94 76 -169 99 -194 61 -433 1 -568 -142 -54 -58 -100 -166 -120 -283 l-13
-76 -200 154 c-110 85 -199 161 -199 168 1 8 80 129 177 269 97 140 177 259
179 265 3 11 -249 226 -260 221 -4 -2 -52 -49 -105 -105 l-97 -102 0 120 c0
89 -3 119 -12 118 -7 0 -96 -35 -198 -78z m-402 -634 c-34 -29 -48 -58 -48
-101 0 -38 28 -76 55 -76 41 0 135 81 135 116 0 9 5 12 11 8 29 -18 -16 -181
-64 -232 -66 -71 -169 -67 -249 9 -33 32 -38 41 -38 83 0 85 64 168 155 200
60 22 74 19 43 -7z m1613 -117 c17 -10 9 -23 -93 -150 -64 -79 -117 -135 -122
-130 -5 5 -11 40 -14 78 -4 62 -2 75 23 120 20 37 39 57 69 72 44 22 106 26
137 10z"/>
<path d="M2870 2019 c-107 -60 -195 -112 -195 -116 0 -20 80 -133 94 -133 28
0 471 86 477 93 8 8 -158 266 -171 266 -5 0 -98 -50 -205 -110z"/>
<path d="M443 2100 c-103 -22 -423 -117 -436 -129 -7 -7 104 -326 118 -340 3
-2 22 12 43 32 l37 36 174 -500 c96 -274 176 -499 178 -499 3 0 182 127 195
139 4 3 -24 114 -62 246 l-69 240 112 110 c193 189 307 354 309 449 1 77 -55
151 -150 198 -65 32 -70 33 -212 35 -113 2 -165 -2 -237 -17z m294 -316 c3 -9
-1 -31 -11 -48 -19 -35 -155 -196 -166 -196 -6 0 -60 186 -60 210 0 40 222 72
237 34z"/>
<path d="M3745 2106 c-85 -17 -165 -37 -308 -78 -107 -30 -108 -31 -102 -57 4
-14 20 -87 36 -161 29 -134 46 -190 58 -190 3 0 19 16 34 36 16 19 32 33 35
29 4 -4 30 -220 58 -481 29 -262 55 -478 58 -481 3 -3 97 11 208 31 165 30
216 43 274 71 84 41 167 117 222 204 l39 62 6 -63 c8 -85 22 -128 60 -185 58
-87 160 -126 326 -125 191 1 392 72 481 168 22 24 40 49 40 56 0 13 -166 220
-181 226 -4 2 -13 -7 -19 -19 -24 -43 -95 -111 -142 -135 -46 -23 -103 -33
-96 -16 2 5 91 113 198 241 107 127 195 237 195 244 0 21 -94 76 -169 99 -194
61 -433 1 -567 -141 l-46 -50 -6 132 c-8 214 -69 401 -162 493 -78 78 -135 97
-315 100 -92 2 -170 -2 -215 -10z m250 -297 c77 -21 101 -63 116 -199 11 -111
-4 -285 -29 -344 -26 -57 -74 -104 -150 -144 -61 -32 -62 -33 -62 -11 0 35
-29 558 -35 621 l-4 56 37 16 c45 18 74 19 127 5z m856 -449 c17 -10 9 -23
-93 -150 -64 -79 -117 -135 -122 -130 -5 5 -11 40 -14 78 -4 62 -2 75 23 120
20 37 39 57 69 72 44 22 106 26 137 10z"/>
<path d="M5086 1699 c6 -8 104 -134 217 -281 l207 -268 -191 -251 c-104 -138
-188 -253 -186 -255 2 -2 91 -1 198 4 l193 7 91 117 c49 64 92 117 95 117 3 0
43 -51 90 -114 47 -63 94 -117 105 -119 11 -3 102 -7 203 -11 147 -4 182 -3
176 7 -4 7 -90 122 -191 255 l-183 243 206 267 c114 148 212 274 217 282 9 11
-21 12 -188 6 -110 -4 -207 -8 -215 -11 -9 -2 -60 -65 -115 -139 -55 -74 -102
-134 -105 -134 -3 0 -50 60 -105 134 -55 74 -107 136 -115 139 -8 2 -105 7
-215 11 -167 6 -197 5 -189 -6z"/>
</g>
</svg>
