<!-- icon666.com - MILLIONS vector ICONS FREE --><svg xmlns="http://www.w3.org/2000/svg" version="1.1" viewBox="0 0 512.00001 512.00001"><g id="surface1"><path d="M 511.996094 256.003906 C 511.996094 397.386719 397.382812 512 255.996094 512 C 114.613281 512 0 397.386719 0 256.003906 C 0 114.617188 114.613281 0.00390625 255.996094 0.00390625 C 397.382812 0.00390625 511.996094 114.617188 511.996094 256.003906 Z M 511.996094 256.003906 " style=" stroke:none;fill-rule:nonzero;fill:rgb(92.54902%,92.941176%,93.72549%);fill-opacity:1;"></path><path d="M 31.035156 256.003906 C 31.035156 119.832031 137.359375 8.507812 271.515625 0.484375 C 266.382812 0.179688 261.210938 0.00390625 256 0.00390625 C 114.613281 0.00390625 0 114.617188 0 256.003906 C 0 397.386719 114.613281 512 255.996094 512 C 261.210938 512 266.382812 511.824219 271.515625 511.519531 C 137.359375 503.496094 31.035156 392.175781 31.035156 256.003906 Z M 31.035156 256.003906 " style=" stroke:none;fill-rule:nonzero;fill:rgb(85.882353%,86.27451%,87.058824%);fill-opacity:1;"></path><path d="M 512 256 L 333.285156 256 C 333.285156 213.316406 298.683594 178.714844 256 178.714844 C 213.320312 178.714844 178.714844 213.316406 178.714844 256 L 0.00390625 256 C 0.00390625 114.617188 114.609375 0 256 0 C 397.382812 0 512 114.617188 512 256 Z M 512 256 " style=" stroke:none;fill-rule:nonzero;fill:rgb(90.196078%,22.352941%,31.372549%);fill-opacity:1;"></path><path d="M 271.519531 0.480469 C 266.382812 0.175781 261.210938 0 256 0 C 114.609375 0 0.00390625 114.617188 0.00390625 256 L 31.039062 256 C 31.039062 119.832031 137.355469 8.507812 271.519531 0.480469 Z M 271.519531 0.480469 " style=" stroke:none;fill-rule:nonzero;fill:rgb(80%,20%,29.803922%);fill-opacity:1;"></path><path d="M 233.886719 330.074219 C 201.980469 320.5625 178.714844 290.996094 178.714844 256 C 178.714844 213.316406 213.320312 178.714844 256 178.714844 C 298.683594 178.714844 333.285156 213.316406 333.285156 256 C 333.285156 298.679688 298.683594 333.285156 256 333.285156 C 248.316406 333.285156 240.894531 332.160156 233.886719 330.074219 " style=" stroke:none;fill-rule:nonzero;fill:rgb(75.686275%,90.980392%,90.196078%);fill-opacity:1;"></path><path d="M 264.921875 330.074219 C 233.015625 320.5625 209.753906 290.996094 209.753906 256 C 209.753906 218.632812 236.273438 187.460938 271.519531 180.273438 C 266.503906 179.253906 261.316406 178.714844 256 178.714844 C 213.320312 178.714844 178.714844 213.316406 178.714844 256 C 178.714844 290.996094 201.980469 320.5625 233.886719 330.074219 C 240.894531 332.160156 248.316406 333.28125 256 333.28125 C 261.328125 333.28125 266.527344 332.742188 271.546875 331.71875 C 269.304688 331.261719 267.09375 330.71875 264.921875 330.074219 Z M 264.921875 330.074219 " style=" stroke:none;fill-rule:nonzero;fill:rgb(59.607843%,85.098039%,83.529412%);fill-opacity:1;"></path></g></svg>