<!-- icon666.com - MILLIONS vector ICONS FREE --><svg id="Layer_1" viewBox="0 0 512 512" xmlns="http://www.w3.org/2000/svg" data-name="Layer 1"><g fill-rule="evenodd"><g fill="#00ffb0"><path d="m382.389 406.628-159.683-92.499 265.978-193.362z" fill="#00ffb0" style="fill: rgb(255, 255, 255);"></path><path d="m261.542 350.5-70.599 40.764 24.014-67.752z" fill="#00ffb0" style="fill: rgb(255, 255, 255);"></path><path d="m142.272 267.539-117.491-68.056 448.131-90.467 1.111 3.372z" fill="#00ffb0" style="fill: rgb(255, 255, 255);"></path></g><path d="m471.568 111.328-329.2 153.957-112.016-64.885 441.216-89.07zm-90.228 292.382 103.16-277.429-258.131 187.658zm-186.7-16.89 21.4-60.371 41.507 24.051zm-40.567-109.354 26.835 100.2 23.27-65.63a8.1 8.1 0 0 1 2.865-3.822l214.028-155.6-267 124.857zm-153.9-82.026a8.015 8.015 0 0 0 3.887 8.223l133.9 77.554c.208.122.415.222.629.322l33.53 125.129a8.007 8.007 0 0 0 11.731 4.851l89.67-51.77 108 62.558a8.059 8.059 0 0 0 4.022 1.086 8.215 8.215 0 0 0 2.7-.472 8.034 8.034 0 0 0 4.787-4.744l118.541-318.777a8.007 8.007 0 0 0 -9.08-10.631l-496 100.116a8.012 8.012 0 0 0 -6.317 6.555z" fill="#143565" style="fill: rgb(255, 255, 255);"></path></g></svg>